# Blender v2.79 (sub 0) OBJ File: 'rock.blend'
# www.blender.org
mtllib rock.mtl
o Sphere_Sphere.001
v 0.000000 -1.000000 0.000000
v 0.500000 0.707107 -0.500000
v 0.707107 -0.000000 -0.707107
v 0.500000 -0.707107 -0.500000
v 0.707107 0.707107 0.000000
v 1.000000 -0.000000 0.000000
v 0.707107 -0.707107 0.000000
v 0.500000 0.707107 0.500000
v 0.707107 -0.000000 0.707107
v 0.500000 -0.707107 0.500000
v 0.000000 0.707107 0.707107
v 0.000000 -0.000000 1.000000
v 0.000000 -0.707107 0.707107
v -0.000000 1.000000 0.000000
v -0.500000 0.707107 0.500000
v -0.707107 -0.000000 0.707107
v -0.500000 -0.707107 0.500000
v -0.707107 0.707107 0.000000
v -1.000000 -0.000000 0.000000
v -0.707107 -0.707107 0.000000
v -0.500000 0.707107 -0.500000
v -0.707107 -0.000000 -0.707107
v -0.500000 -0.707107 -0.500000
v 0.000000 0.707107 -0.707107
v 0.000000 -0.000000 -1.000000
v 0.000000 -0.707107 -0.707107
vt 0.504154 1.000000
vt 0.395984 0.869942
vt 0.519781 0.878905
vt 0.218104 0.515844
vt 0.154223 0.659647
vt 0.090342 0.515844
vt 0.474975 0.678361
vt 0.376385 0.182378
vt 0.509457 0.000000
vt 0.555120 0.151087
vt 0.308446 0.759891
vt 0.866776 0.902727
vt 0.740391 0.666931
vt 0.919126 0.698222
vt 0.786054 0.515844
vt 0.912439 0.537970
vt 0.000000 0.616338
vt 0.000000 0.758458
vt 0.308446 0.613219
vt 0.740391 0.880601
vt 0.607318 0.698222
vt 0.727168 0.386883
vt 0.821265 0.151087
vt 0.821265 0.364757
vt 0.947650 0.386883
vt 0.090342 0.858952
vt 0.395984 0.515844
vt 0.866928 0.000000
vt 1.000000 0.182378
vt 0.178735 0.515844
vt 0.311807 0.333466
vt 0.344096 0.440300
vt 0.218104 0.858952
vt 0.519781 0.524807
vt 0.244565 0.997008
vt 0.063881 0.997008
vt 0.133072 0.364757
vt 0.311808 0.182378
vt 0.308446 0.758458
vt 0.607318 0.634858
vt 0.000000 0.333466
vt 0.133072 0.151087
vt 0.344096 0.075544
vt 0.308446 0.616338
vt 0.607318 0.781530
vt 0.344096 0.440300
vt 0.555120 0.364757
vt 0.509457 0.515844
vt 0.688192 0.182378
vt 0.688192 0.333466
vt 0.376385 0.333466
vt 0.329079 0.987324
vt 0.344096 0.075544
vt 0.646294 0.902727
vt 0.688192 0.182378
vt 0.993313 0.022126
vt 0.000000 0.182378
vt 0.178735 0.000000
vn 0.3574 -0.3574 -0.8629
vn 0.1566 0.9125 -0.3780
vn 0.1566 -0.9125 -0.3780
vn 0.3574 0.3574 -0.8629
vn 0.3780 -0.9125 -0.1566
vn 0.8629 0.3574 -0.3574
vn 0.8629 -0.3574 -0.3574
vn 0.3780 0.9125 -0.1566
vn 0.3780 0.9125 0.1566
vn 0.3780 -0.9125 0.1566
vn 0.8629 0.3574 0.3574
vn 0.8629 -0.3574 0.3574
vn 0.3574 -0.3574 0.8629
vn 0.1566 0.9125 0.3780
vn 0.1566 -0.9125 0.3780
vn 0.3574 0.3574 0.8629
vn -0.3574 -0.3574 0.8629
vn -0.1566 0.9125 0.3780
vn -0.1566 -0.9125 0.3780
vn -0.3574 0.3574 0.8629
vn -0.8629 -0.3574 0.3574
vn -0.3780 0.9125 0.1566
vn -0.3780 -0.9125 0.1566
vn -0.8629 0.3574 0.3574
vn -0.8629 -0.3574 -0.3574
vn -0.3780 0.9125 -0.1566
vn -0.3780 -0.9125 -0.1566
vn -0.8629 0.3574 -0.3574
vn -0.3574 -0.3574 -0.8629
vn -0.1566 0.9125 -0.3780
vn -0.1566 -0.9125 -0.3780
vn -0.3574 0.3574 -0.8629
usemtl Material.001
s off
f 25/1/1 4/2/1 26/3/1
f 24/4/2 14/5/2 2/6/2
f 1/7/3 26/3/3 4/2/3
f 24/8/4 3/9/4 25/10/4
f 1/7/5 4/2/5 7/11/5
f 2/12/6 6/13/6 3/14/6
f 3/14/7 7/15/7 4/16/7
f 2/6/8 14/5/8 5/17/8
f 5/17/9 14/5/9 8/18/9
f 1/7/10 7/11/10 10/19/10
f 5/20/11 9/21/11 6/13/11
f 7/22/12 9/23/12 10/24/12
f 9/23/13 13/25/13 10/24/13
f 8/18/14 14/5/14 11/26/14
f 1/7/15 10/19/15 13/27/15
f 8/28/16 12/29/16 9/23/16
f 12/30/17 17/31/17 13/32/17
f 11/26/18 14/5/18 15/33/18
f 1/7/19 13/27/19 17/34/19
f 11/26/20 16/35/20 12/36/20
f 16/37/21 20/38/21 17/31/21
f 15/33/22 14/5/22 18/39/22
f 1/7/23 17/34/23 20/40/23
f 15/41/24 19/42/24 16/37/24
f 19/42/25 23/43/25 20/38/25
f 18/39/26 14/5/26 21/44/26
f 1/7/27 20/40/27 23/45/27
f 18/46/28 22/47/28 19/48/28
f 22/47/29 26/49/29 23/50/29
f 21/44/30 14/5/30 24/4/30
f 1/7/31 23/45/31 26/3/31
f 21/51/32 25/10/32 22/47/32
f 25/1/1 3/52/1 4/2/1
f 24/8/4 2/53/4 3/9/4
f 2/12/6 5/20/6 6/13/6
f 3/14/7 6/13/7 7/15/7
f 5/20/11 8/54/11 9/21/11
f 7/22/12 6/55/12 9/23/12
f 9/23/13 12/29/13 13/25/13
f 8/28/16 11/56/16 12/29/16
f 12/30/17 16/37/17 17/31/17
f 11/26/20 15/33/20 16/35/20
f 16/37/21 19/42/21 20/38/21
f 15/41/24 18/57/24 19/42/24
f 19/42/25 22/58/25 23/43/25
f 18/46/28 21/51/28 22/47/28
f 22/47/29 25/10/29 26/49/29
f 21/51/32 24/8/32 25/10/32
