# Blender v2.79 (sub 0) OBJ File: 'Prism.blend'
# www.blender.org
mtllib Prism.mtl
o Cube
v 0.000000 -1.000000 -0.000000
v 1.000000 1.000000 -0.999999
v 0.999999 1.000000 1.000001
v -1.000000 1.000000 1.000000
v -1.000000 1.000000 -1.000000
v -0.000000 3.000000 0.000000
vt 0.666667 0.250000
vt 1.000000 0.125000
vt 1.000000 0.500000
vt 0.333333 0.500000
vt 0.333333 0.875000
vt 0.000000 0.750000
vt 0.733333 0.000000
vt 0.666667 0.000000
vt 0.666667 0.375000
vt 0.333333 0.250000
vt 0.333333 0.125000
vt 0.000000 0.250000
vt 0.066667 1.000000
vt 0.400000 0.500000
vt 0.066667 0.000000
vn -0.0000 0.4472 0.8944
vn 0.8944 -0.4472 0.0000
vn -0.0000 -0.4472 0.8944
vn -0.8944 -0.4472 -0.0000
vn 0.0000 -0.4472 -0.8944
vn 0.8944 0.4472 0.0000
vn -0.8944 0.4472 -0.0000
vn 0.0000 0.4472 -0.8944
usemtl Material
s off
f 4/1/1 3/2/1 6/3/1
f 1/4/2 2/5/2 3/6/2
f 1/7/3 3/2/3 4/1/3
f 1/8/4 4/9/4 5/10/4
f 2/11/5 1/4/5 5/12/5
f 3/6/6 2/5/6 6/13/6
f 5/10/7 4/9/7 6/14/7
f 2/11/8 5/12/8 6/15/8
